#format: frame checksums
#version: 2
#hash: MD5
#tb 0: 1/25
#media_type 0: video
#codec_id 0: rawvideo
#dimensions 0: 160x120
#sar 0: 1/1
#stream#, dts,        pts, duration,     size, hash
0,          0,          0,        1,    57600, 65fe9892ad710cc5763b04b390327d40
0,          1,          1,        1,    57600, 5e8d4524bc8889afa8769e851e998bc0
0,          2,          2,        1,    57600, 8f5e0e58d1f4c2104b82ef7a16850f1e
0,          3,          3,        1,    57600, cfe4142845e1445d33748493faa63cda
0,          4,          4,        1,    57600, bb491f3b01788773fb6129aef0f0abd2
